<?xml version="1.0" standalone="no"?>
<!DOCTYPE svg PUBLIC "-//W3C//DTD SVG 20010904//EN"
 "http://www.w3.org/TR/2001/REC-SVG-20010904/DTD/svg10.dtd">
<svg version="1.0" xmlns="http://www.w3.org/2000/svg"
 width="2048.000000pt" height="2048.000000pt" viewBox="0 0 2048.000000 2048.000000"
 preserveAspectRatio="xMidYMid meet">
<metadata>
Created by potrace 1.14, written by Peter Selinger 2001-2017
</metadata>
<g transform="translate(0.000000,2048.000000) scale(0.100000,-0.100000)"
fill="#000000" stroke="none">
<path d="M9957 20444 c-1 -1 -76 -5 -167 -8 -91 -4 -192 -9 -225 -11 -33 -3
-91 -7 -130 -10 -106 -8 -186 -15 -225 -20 -19 -3 -60 -7 -90 -10 -55 -5 -118
-12 -175 -20 -41 -6 -102 -14 -150 -20 -22 -3 -51 -7 -65 -10 -14 -3 -43 -7
-65 -10 -34 -4 -76 -11 -245 -40 -28 -5 -78 -15 -275 -54 -674 -135 -1483
-401 -2150 -706 -247 -113 -649 -321 -848 -439 -43 -25 -81 -46 -83 -46 -3 0
-17 -8 -32 -18 -15 -11 -106 -68 -202 -127 -96 -59 -184 -116 -196 -126 -11
-11 -23 -19 -26 -19 -16 0 -593 -410 -618 -439 -3 -4 -70 -58 -150 -122 -80
-64 -155 -125 -166 -135 -12 -11 -41 -35 -64 -54 -24 -19 -48 -40 -54 -45 -6
-6 -49 -44 -95 -85 -158 -140 -215 -195 -436 -415 -201 -200 -345 -352 -436
-460 -19 -22 -39 -44 -45 -50 -45 -43 -300 -356 -436 -535 -141 -187 -219
-296 -344 -484 -63 -94 -117 -175 -122 -181 -21 -26 -238 -387 -313 -522 -230
-412 -446 -870 -609 -1293 -61 -160 -179 -485 -185 -513 -1 -7 -5 -19 -8 -27
-8 -22 -54 -170 -65 -210 -6 -19 -26 -89 -45 -155 -32 -107 -120 -449 -131
-507 -2 -13 -9 -43 -15 -68 -5 -25 -12 -56 -15 -70 -2 -14 -14 -70 -25 -124
-12 -55 -35 -181 -52 -280 -36 -219 -36 -220 -44 -276 -5 -40 -20 -147 -30
-220 -2 -14 -6 -54 -10 -90 -3 -36 -8 -81 -11 -100 -5 -38 -9 -89 -19 -210 -3
-41 -7 -97 -10 -125 -27 -297 -27 -1124 0 -1425 2 -25 7 -83 10 -130 7 -96 13
-156 19 -215 3 -22 10 -85 16 -140 6 -55 13 -111 15 -125 2 -14 7 -49 10 -79
4 -30 9 -63 11 -75 2 -11 6 -38 9 -61 3 -22 8 -51 10 -65 3 -14 7 -41 10 -60
3 -19 8 -48 11 -65 3 -16 7 -43 10 -60 2 -16 11 -64 19 -105 8 -41 17 -88 20
-105 2 -16 7 -39 9 -50 3 -11 11 -51 20 -90 8 -38 31 -140 51 -225 20 -85 38
-162 40 -170 5 -25 64 -235 107 -380 77 -263 266 -810 289 -835 5 -5 9 -15 9
-22 0 -15 153 -375 225 -528 167 -358 349 -699 543 -1015 115 -186 351 -544
363 -548 5 -2 9 -8 9 -13 0 -5 30 -50 67 -101 80 -109 76 -105 106 -143 13
-16 54 -70 91 -118 37 -49 74 -96 81 -105 8 -9 49 -60 91 -112 66 -82 155
-189 189 -226 6 -6 39 -44 75 -85 264 -300 594 -630 900 -899 47 -41 92 -81
102 -90 9 -8 29 -25 45 -37 15 -12 44 -36 63 -53 19 -17 96 -79 170 -138 74
-58 137 -109 140 -112 11 -12 244 -183 370 -271 136 -96 398 -270 480 -319 25
-15 115 -69 168 -101 79 -48 289 -167 377 -214 155 -83 351 -182 463 -234 227
-105 259 -120 387 -174 294 -125 677 -266 945 -346 41 -13 86 -27 100 -32 58
-20 436 -123 490 -134 8 -2 53 -12 100 -24 47 -11 100 -23 119 -26 19 -3 37
-7 40 -9 3 -2 22 -7 41 -10 19 -3 44 -8 55 -10 60 -14 164 -35 190 -39 17 -3
95 -17 175 -31 80 -13 165 -27 190 -31 25 -3 56 -8 70 -10 14 -3 43 -7 65 -10
22 -2 56 -7 75 -9 19 -3 58 -8 85 -11 28 -3 64 -8 80 -10 17 -2 62 -7 100 -11
39 -3 84 -8 100 -10 17 -1 68 -5 115 -9 47 -3 101 -8 120 -10 282 -27 1124
-28 1457 0 23 2 84 6 135 10 51 3 104 8 118 10 29 4 111 13 270 29 36 4 72 9
80 11 8 2 40 7 70 10 30 3 62 8 70 10 8 2 38 7 65 10 63 7 260 40 388 66 53
10 112 21 130 24 17 3 39 8 47 10 20 6 64 15 122 25 27 5 52 11 56 14 5 3 42
12 83 20 41 9 151 36 244 62 94 25 175 47 180 48 6 1 30 9 55 16 25 7 50 14
56 16 51 10 593 190 659 219 17 7 68 27 115 45 47 17 94 35 105 40 11 5 85 36
165 68 223 92 595 266 785 369 543 291 928 533 1384 870 34 25 204 157 227
176 10 9 62 51 114 93 84 67 206 170 220 184 3 3 41 36 85 75 44 38 85 74 91
80 75 66 339 322 449 435 226 231 380 400 540 594 22 27 45 54 50 60 55 59
380 486 455 596 8 12 22 32 31 44 84 110 489 750 489 771 0 2 19 36 43 77 141
240 393 754 513 1048 19 47 41 99 48 115 120 269 380 1070 441 1355 2 8 10 42
18 75 9 33 18 71 20 85 3 14 10 43 15 65 10 37 38 166 49 225 2 14 10 57 18
95 33 165 74 419 90 555 4 30 8 57 10 60 1 3 6 41 10 84 4 43 8 86 10 95 1 9
6 50 9 91 4 41 9 91 11 110 4 35 14 152 20 240 26 389 26 1029 0 1385 -1 22
-6 83 -9 135 -4 52 -9 106 -11 120 -2 14 -7 57 -10 97 -4 40 -8 82 -9 95 -2
13 -6 52 -10 88 -4 36 -9 76 -11 90 -2 14 -6 45 -10 70 -11 89 -24 175 -30
210 -3 14 -7 41 -10 60 -5 32 -16 94 -30 175 -2 17 -7 41 -10 55 -2 14 -10 50
-15 80 -18 92 -50 240 -72 330 -11 47 -22 94 -24 105 -8 43 -77 307 -115 440
-41 142 -220 685 -244 740 -7 17 -43 107 -80 200 -184 466 -477 1060 -725
1465 -5 8 -33 53 -61 100 -248 408 -639 947 -916 1263 -25 29 -57 66 -71 82
-211 249 -675 720 -918 932 -12 10 -49 43 -84 73 -60 53 -81 71 -125 108 -236
201 -578 460 -860 650 -82 56 -155 106 -162 112 -7 5 -24 15 -38 22 -14 6 -25
15 -25 20 0 4 -4 8 -9 8 -5 0 -65 35 -133 77 -135 84 -337 203 -344 203 -2 0
-21 10 -42 23 -104 65 -429 232 -677 347 -578 269 -1157 474 -1785 634 -190
48 -440 104 -539 121 -19 3 -37 7 -40 9 -3 2 -26 7 -51 10 -25 3 -55 8 -66 10
-12 2 -37 7 -55 10 -19 3 -45 8 -59 11 -14 3 -38 7 -55 9 -16 3 -59 9 -95 15
-36 5 -89 13 -119 16 -30 4 -61 8 -70 10 -33 6 -98 14 -156 20 -33 4 -73 8
-90 10 -52 6 -157 17 -194 20 -20 1 -72 6 -116 9 -240 20 -453 28 -788 30
-164 1 -299 1 -300 0z m-507 -5408 c177 -7 352 -15 445 -20 39 -3 122 -7 185
-11 63 -4 131 -8 150 -10 19 -2 82 -6 140 -10 58 -3 116 -8 130 -10 14 -2 63
-6 110 -10 82 -6 115 -9 225 -20 28 -3 75 -7 105 -10 126 -13 226 -24 265 -30
17 -2 57 -7 90 -10 33 -3 71 -8 85 -10 14 -3 48 -7 75 -10 68 -8 270 -35 292
-39 10 -2 41 -7 68 -11 124 -16 393 -60 600 -97 33 -5 69 -12 80 -13 22 -4 67
-12 105 -20 14 -3 41 -8 60 -11 19 -3 43 -7 52 -10 10 -3 30 -7 45 -10 16 -2
60 -11 98 -20 39 -8 81 -17 95 -19 14 -3 36 -7 50 -10 14 -3 34 -7 45 -9 165
-33 675 -156 878 -210 31 -9 83 -23 115 -31 83 -23 258 -73 327 -95 33 -10
107 -32 165 -50 58 -17 152 -47 210 -67 58 -19 112 -36 120 -38 8 -2 80 -27
160 -55 80 -28 165 -58 190 -67 46 -16 111 -41 380 -146 464 -181 1056 -460
1419 -669 46 -26 85 -48 87 -48 8 0 214 -126 248 -152 161 -122 290 -317 347
-523 31 -114 35 -311 8 -426 -27 -121 -27 -120 -43 -154 -8 -16 -21 -47 -29
-67 -28 -68 -125 -202 -194 -269 -189 -185 -412 -274 -678 -273 -201 1 -310
37 -580 190 -77 44 -147 83 -155 87 -8 4 -35 19 -60 33 -75 43 -448 229 -560
279 -58 26 -127 57 -155 69 -27 13 -102 44 -165 70 -63 27 -124 52 -135 57
-191 84 -721 269 -1080 379 -349 106 -860 236 -1242 315 -13 3 -31 7 -40 9
-106 25 -589 115 -708 131 -22 3 -51 8 -65 11 -78 14 -80 15 -250 39 -63 9
-125 18 -136 20 -12 2 -48 7 -80 10 -33 4 -68 9 -79 11 -11 2 -58 8 -105 14
-269 31 -351 40 -400 45 -30 3 -75 8 -100 10 -46 5 -94 10 -230 20 -41 3 -88
8 -105 10 -16 2 -75 7 -130 10 -55 4 -118 8 -140 10 -22 2 -96 6 -165 10 -69
4 -154 8 -190 10 -450 26 -1397 26 -1905 0 -156 -8 -303 -16 -350 -20 -27 -2
-84 -7 -125 -10 -90 -6 -165 -13 -240 -20 -30 -3 -80 -7 -110 -10 -98 -9 -174
-16 -200 -20 -14 -2 -54 -7 -90 -10 -36 -3 -72 -8 -80 -10 -8 -2 -44 -7 -80
-10 -36 -3 -94 -10 -130 -15 -36 -5 -83 -12 -105 -15 -22 -3 -56 -8 -75 -11
-19 -3 -51 -8 -70 -10 -55 -7 -275 -43 -390 -64 -58 -11 -118 -22 -135 -24
-30 -6 -287 -58 -395 -81 -14 -3 -34 -7 -45 -9 -122 -25 -409 -99 -610 -156
-93 -27 -190 -53 -215 -59 -242 -54 -476 -17 -693 109 -256 149 -438 430 -463
715 -3 33 -6 71 -8 85 -6 49 15 206 38 285 26 90 80 202 137 287 99 145 286
288 454 346 53 19 355 108 395 117 8 2 96 23 195 48 286 72 376 93 621 142
126 26 240 48 254 50 14 3 34 6 45 8 11 3 40 8 65 12 25 4 54 9 65 11 39 8 71
14 165 29 52 8 104 17 115 19 11 2 47 7 80 12 33 4 62 8 65 9 3 0 32 5 65 9
32 4 68 10 79 12 11 2 42 6 70 9 59 7 108 13 151 20 30 5 55 8 175 21 36 4 72
8 80 9 8 1 51 5 95 10 44 4 88 9 98 11 10 2 53 6 95 9 42 4 93 8 112 10 19 2
71 6 115 10 44 4 96 8 115 10 19 2 82 7 140 10 58 4 128 9 155 10 50 4 200 12
345 20 41 2 169 7 285 10 115 4 211 8 212 9 5 4 1041 -2 1183 -8z m-500 -3511
c135 -3 277 -8 315 -10 141 -6 301 -16 345 -20 25 -2 86 -7 135 -10 50 -4 104
-8 120 -9 17 -2 66 -7 110 -10 44 -4 91 -9 105 -11 14 -2 57 -6 95 -10 39 -3
81 -8 95 -10 14 -2 52 -7 85 -10 84 -8 343 -41 395 -50 14 -3 45 -7 70 -10 25
-3 70 -10 100 -15 58 -10 76 -13 180 -29 36 -6 74 -13 85 -15 11 -2 40 -7 65
-11 25 -3 101 -17 170 -30 69 -13 136 -26 150 -28 48 -9 236 -49 340 -72 58
-13 116 -26 130 -28 14 -3 54 -13 90 -22 36 -9 76 -19 90 -21 14 -3 93 -23
175 -45 83 -22 157 -41 166 -43 49 -12 293 -81 409 -117 74 -22 142 -42 150
-44 8 -2 15 -4 15 -5 0 -1 7 -3 15 -5 16 -3 274 -90 445 -148 551 -190 1209
-478 1740 -762 371 -199 609 -343 692 -419 127 -116 220 -284 250 -449 9 -51
8 -240 -1 -282 -75 -338 -310 -572 -641 -641 -59 -12 -230 -10 -292 3 -132 27
-140 31 -465 221 -737 430 -1585 781 -2568 1061 -332 94 -952 238 -1190 276
-19 3 -42 8 -50 10 -8 2 -33 6 -55 10 -22 3 -80 12 -130 21 -49 8 -103 17
-120 20 -16 2 -41 6 -55 9 -14 2 -41 6 -60 9 -37 5 -239 33 -300 42 -36 5 -61
8 -165 19 -32 4 -62 8 -65 10 -3 1 -45 6 -94 10 -50 4 -97 8 -105 10 -9 2 -54
6 -101 9 -47 4 -103 9 -125 11 -22 3 -76 7 -120 10 -44 2 -114 7 -155 10 -471
37 -1278 37 -1830 0 -113 -7 -284 -21 -375 -30 -47 -5 -68 -7 -185 -19 -99
-11 -156 -17 -180 -21 -14 -2 -50 -6 -80 -10 -30 -4 -66 -8 -80 -10 -14 -3
-45 -7 -70 -10 -175 -22 -513 -82 -850 -151 -196 -40 -634 -153 -848 -218
-205 -62 -394 -51 -579 34 -104 48 -163 89 -237 164 -297 301 -307 776 -22
1093 63 69 155 138 242 180 72 34 505 165 627 189 10 2 27 6 37 9 10 3 27 8
37 10 10 2 65 15 123 29 151 38 404 93 555 122 72 14 139 27 150 29 32 6 316
54 360 60 22 4 78 12 125 20 47 7 112 16 145 20 32 4 66 8 75 10 33 6 206 27
335 40 33 4 71 8 85 10 14 2 61 7 105 10 44 3 96 8 115 10 19 2 71 6 115 10
44 3 103 8 130 10 28 3 102 7 165 11 63 3 140 8 170 10 30 2 183 6 340 10 157
3 286 7 287 8 3 2 304 -2 543 -9z m135 -3330 c138 -3 275 -8 305 -10 30 -2 98
-6 150 -10 190 -12 197 -12 395 -30 97 -9 160 -15 195 -20 19 -3 58 -7 85 -10
28 -3 66 -7 85 -10 19 -2 58 -7 85 -10 28 -3 61 -8 75 -10 30 -5 107 -16 135
-20 54 -7 141 -19 145 -20 9 -3 70 -14 245 -45 179 -32 195 -35 235 -44 14 -3
36 -8 50 -10 124 -22 591 -135 730 -176 36 -10 90 -26 120 -34 159 -42 632
-200 815 -271 408 -158 608 -246 980 -430 282 -140 677 -358 806 -446 274
-185 370 -525 229 -811 -69 -139 -169 -237 -303 -298 -161 -73 -316 -81 -481
-25 -53 18 -61 23 -221 117 -60 36 -132 78 -160 93 -27 15 -90 50 -140 78
-113 63 -413 212 -542 271 -54 24 -123 55 -153 69 -300 137 -823 325 -1199
432 -91 26 -172 48 -180 50 -9 2 -79 20 -156 40 -77 20 -183 45 -235 56 -52
11 -102 22 -110 24 -104 24 -451 87 -605 111 -27 4 -54 8 -60 9 -9 2 -75 11
-150 20 -11 2 -41 5 -65 9 -25 3 -67 8 -95 11 -27 3 -66 8 -85 10 -19 3 -62 7
-95 10 -33 3 -80 8 -105 11 -59 6 -122 11 -245 19 -55 4 -118 9 -140 11 -133
11 -420 18 -765 18 -420 0 -632 -6 -953 -29 -51 -4 -112 -8 -137 -10 -46 -3
-151 -12 -230 -20 -25 -3 -72 -7 -105 -10 -33 -3 -94 -10 -135 -15 -41 -5
-102 -12 -135 -15 -33 -3 -69 -7 -80 -9 -11 -2 -45 -7 -75 -10 -30 -4 -66 -8
-80 -10 -14 -3 -45 -7 -70 -10 -25 -3 -54 -8 -65 -10 -11 -2 -45 -7 -75 -10
-30 -4 -66 -8 -80 -11 -14 -2 -83 -13 -155 -25 -183 -29 -181 -29 -270 -45
-44 -8 -96 -17 -115 -20 -19 -3 -66 -12 -105 -20 -38 -8 -81 -16 -95 -19 -14
-2 -95 -18 -180 -36 -168 -34 -165 -34 -227 -48 -24 -5 -43 -8 -43 -6 0 3 -8
0 -18 -5 -10 -5 -38 -12 -62 -16 -25 -4 -47 -8 -50 -10 -18 -11 -109 -20 -200
-19 -81 1 -121 6 -175 24 -194 64 -346 214 -411 406 -37 106 -40 271 -7 381
49 167 184 324 339 394 55 25 236 74 354 96 14 2 63 13 110 23 47 10 99 21
115 24 17 3 73 14 126 25 89 18 386 74 454 85 47 8 208 36 230 40 11 2 43 7
70 10 28 4 75 11 105 16 30 5 73 12 95 15 22 3 67 10 100 15 33 5 86 12 118
15 32 4 66 8 76 10 10 2 42 6 72 9 30 4 70 9 89 11 19 3 55 7 80 10 25 3 61 7
80 10 19 2 64 7 100 10 36 3 81 8 100 10 19 2 67 7 105 10 39 3 93 8 120 11
28 2 82 7 120 10 39 2 95 6 125 9 48 3 123 8 335 20 28 2 167 6 310 10 143 4
261 8 262 9 3 3 333 -2 568 -9z"/>
</g>
</svg>
